<svg xmlns="http://www.w3.org/2000/svg" width="460" height="290" viewBox="0 0 460 290" role="img" aria-label="Primary languages by public non-fork repository count: TypeScript 4, Python 3, Kotlin 2, C# 1, JavaScript 1">
<title>Primary languages by public non-fork repository count: TypeScript 4, Python 3, Kotlin 2, C# 1, JavaScript 1</title>
<defs><linearGradient id="panel" x2="1" y2="1"><stop stop-color="#15222e"/><stop offset="1" stop-color="#0b121b"/></linearGradient></defs>
<rect x=".5" y=".5" width="459" height="289" rx="14" fill="url(#panel)" stroke="#314555"/>
<text x="24" y="34" fill="#a8c7d9" font-family="Arial, Helvetica, sans-serif" font-size="12" letter-spacing="2.5">LANGUAGE SIGNAL</text><text x="24" y="58" fill="#a0b6c6" font-family="Arial, Helvetica, sans-serif" font-size="12" >Primary language per public, non-fork repository</text><text x="24" y="88" fill="#dce8f0" font-family="Arial, Helvetica, sans-serif" font-size="14" >TypeScript</text><rect x="144" y="79" width="230" height="5" rx="2.5" fill="#233440"/><rect x="144" y="79" width="230.0" height="5" rx="2.5" fill="#9cbfd2"/><text x="433" y="88" fill="#bed2df" font-family="Arial, Helvetica, sans-serif" font-size="13" text-anchor="end">4</text><text x="24" y="120" fill="#dce8f0" font-family="Arial, Helvetica, sans-serif" font-size="14" >Python</text><rect x="144" y="111" width="230" height="5" rx="2.5" fill="#233440"/><rect x="144" y="111" width="172.5" height="5" rx="2.5" fill="#9cbfd2"/><text x="433" y="120" fill="#bed2df" font-family="Arial, Helvetica, sans-serif" font-size="13" text-anchor="end">3</text><text x="24" y="152" fill="#dce8f0" font-family="Arial, Helvetica, sans-serif" font-size="14" >Kotlin</text><rect x="144" y="143" width="230" height="5" rx="2.5" fill="#233440"/><rect x="144" y="143" width="115.0" height="5" rx="2.5" fill="#9cbfd2"/><text x="433" y="152" fill="#bed2df" font-family="Arial, Helvetica, sans-serif" font-size="13" text-anchor="end">2</text><text x="24" y="184" fill="#dce8f0" font-family="Arial, Helvetica, sans-serif" font-size="14" >C#</text><rect x="144" y="175" width="230" height="5" rx="2.5" fill="#233440"/><rect x="144" y="175" width="57.5" height="5" rx="2.5" fill="#9cbfd2"/><text x="433" y="184" fill="#bed2df" font-family="Arial, Helvetica, sans-serif" font-size="13" text-anchor="end">1</text><text x="24" y="216" fill="#dce8f0" font-family="Arial, Helvetica, sans-serif" font-size="14" >JavaScript</text><rect x="144" y="207" width="230" height="5" rx="2.5" fill="#233440"/><rect x="144" y="207" width="57.5" height="5" rx="2.5" fill="#9cbfd2"/><text x="433" y="216" fill="#bed2df" font-family="Arial, Helvetica, sans-serif" font-size="13" text-anchor="end">1</text><path d="M24 239H436" stroke="#304353"/><text x="24" y="266" fill="#a0b6c6" font-family="Arial, Helvetica, sans-serif" font-size="12" >Repository counts, not proficiency or code percentages.</text>
</svg>
